<svg xmlns="http://www.w3.org/2000/svg" xmlns:xlink="http://www.w3.org/1999/xlink" width="512" height="512" viewBox="0 0 512 512"><defs><style>.a{fill:none;}.b{fill:#003d69;}.c{clip-path:url(#a);}.d{fill:#fff;}</style><clipPath id="a"><rect class="a" width="377.739" height="91.121"/></clipPath></defs><circle class="b" cx="256" cy="256" r="256"/><g transform="translate(67 210)"><g class="c"><path class="d" d="M55.356,41.108h0c-8.047-3.067-10.5-4.987-10.5-8.216,0-3.018,2.029-4.963,5.48-5.385H73.7a2.6,2.6,0,0,0,2.6-2.6V20.768a2.6,2.6,0,0,0-2.6-2.6H16.75V3.008A3.01,3.01,0,0,0,13.739,0H9.9A3.01,3.01,0,0,0,6.89,3.008v15.16H3.011A3.009,3.009,0,0,0,0,21.176V24.5a3.009,3.009,0,0,0,3.011,3.008H6.89V57.9c0,7.787,2.593,17.071,14.944,17.071a16.086,16.086,0,0,0,6.2-.92A1.148,1.148,0,0,0,28.706,73V66.47a1.148,1.148,0,0,0-1.324-1.134h0a30.245,30.245,0,0,1-4.627.293c-3.894,0-6-1.232-6-7.733V27.506H36.041a14.192,14.192,0,0,0-1.049,5.385c0,8.562,5.888,12.617,14.718,16.068a52.339,52.339,0,0,1,9.8,4.782,5.394,5.394,0,0,1,2.361,4.871c0,4.265-3.715,6.711-10.194,6.711-6.03,0-10.581-2.66-11.878-6.941a1.149,1.149,0,0,0-1.509-.741L31.85,60.09a1.147,1.147,0,0,0-.7,1.361h0c2.119,8.148,9.985,13.21,20.527,13.21,13.853,0,20.053-8.061,20.053-16.049,0-7.966-4.743-13.038-16.371-17.5"/><path class="d" d="M327.976,36.3,310.644,87.088a3.01,3.01,0,0,1-2.85,2.037H305.48a3.011,3.011,0,0,1-2.862-2.073L291.15,52l-4.964-15.173L286,36.264a3.008,3.008,0,0,1,2.862-3.941h3.587a3.011,3.011,0,0,1,2.864,2.081l11.276,34.773,11.753-34.808a3.011,3.011,0,0,1,2.853-2.046h3.926a3.008,3.008,0,0,1,2.85,3.978" transform="translate(-125.172 -14.154)"/><path class="d" d="M217.924,39.684l-9.624,29.5L196.546,34.369a3.011,3.011,0,0,0-2.853-2.047H182.285a3.009,3.009,0,0,0-3.011,3.008v4.017a28.326,28.326,0,0,0-18.707-7.024,29.553,29.553,0,0,0-3.734.241,28.4,28.4,0,1,0,22.441,49.525v4.028a3.009,3.009,0,0,0,3.011,3.008h3.722a3.009,3.009,0,0,0,3.011-3.008V42.182l15.323,44.906a3.011,3.011,0,0,0,2.85,2.037h2.324a3.011,3.011,0,0,0,2.863-2.075l10.509-32.193Zm-38.8,23.491a18.706,18.706,0,1,1-20.993-20.981,18.761,18.761,0,0,1,20.993,20.981" transform="translate(-57.869 -14.154)"/><path class="d" d="M406.592,39.349a28.4,28.4,0,1,0,0,42.743v4.356a2.673,2.673,0,0,0,2.674,2.671h4.391a2.673,2.673,0,0,0,2.674-2.671V34.991a2.673,2.673,0,0,0-2.674-2.672h-4.391a2.673,2.673,0,0,0-2.674,2.672v4.358Zm-16.272,39.9a18.688,18.688,0,1,1,16.114-16.077A18.719,18.719,0,0,1,390.32,79.251" transform="translate(-157.406 -14.152)"/><path class="d" d="M511.616,39.349a28.4,28.4,0,1,0,0,42.743v4.356a2.673,2.673,0,0,0,2.674,2.671h4.391a2.673,2.673,0,0,0,2.675-2.671V34.991a2.673,2.673,0,0,0-2.675-2.672h-4.391a2.673,2.673,0,0,0-2.674,2.672v4.358Zm-16.272,39.9a18.688,18.688,0,1,1,16.114-16.077,18.719,18.719,0,0,1-16.114,16.077" transform="translate(-203.395 -14.152)"/><path class="d" d="M617.961,39.349h0a28.4,28.4,0,1,0,0,42.743V102.6a2.673,2.673,0,0,0,2.674,2.672h4.391A2.673,2.673,0,0,0,627.7,102.6V34.991a2.673,2.673,0,0,0-2.674-2.672h-4.391a2.673,2.673,0,0,0-2.674,2.672Zm-16.272,39.9A18.688,18.688,0,1,1,617.8,63.174a18.719,18.719,0,0,1-16.114,16.077" transform="translate(-249.962 -14.152)"/></g></g></svg>