<svg xmlns="http://www.w3.org/2000/svg" width="175.279" height="50.399" viewBox="0 0 175.279 50.399"><defs><style>.a{fill:#fff;}.b{fill:#ffd92d;}</style></defs><g transform="translate(-12377.381 -10406.833)"><g transform="translate(12377.381 10406.833)"><path class="a" d="M12403.068,10425.931h0c-3.733-1.425-4.872-2.316-4.872-3.817,0-1.4.941-2.307,2.542-2.5h10.843a1.208,1.208,0,0,0,1.208-1.208v-1.922a1.208,1.208,0,0,0-1.208-1.208h-26.425v-7.043a1.4,1.4,0,0,0-1.4-1.4h-1.781a1.4,1.4,0,0,0-1.4,1.4v7.043h-1.8a1.4,1.4,0,0,0-1.4,1.4v1.544a1.4,1.4,0,0,0,1.4,1.4h1.8v14.118c0,3.618,1.2,7.93,6.936,7.93a7.463,7.463,0,0,0,2.876-.427h0a.535.535,0,0,0,.313-.485v-3.035a.534.534,0,0,0-.615-.526h0a14.05,14.05,0,0,1-2.146.136c-1.807,0-2.786-.572-2.786-3.592v-14.118h8.951a6.6,6.6,0,0,0-.486,2.5c0,3.978,2.732,5.861,6.829,7.465a24.225,24.225,0,0,1,4.546,2.222,2.507,2.507,0,0,1,1.095,2.264c0,1.98-1.724,3.117-4.729,3.117-2.8,0-4.911-1.236-5.512-3.226h0a.534.534,0,0,0-.7-.343l-2.987,1.137a.535.535,0,0,0-.326.634h0c.983,3.785,4.634,6.136,9.526,6.136,6.428,0,9.3-3.745,9.3-7.455S12408.464,10428,12403.068,10425.931Z" transform="translate(-12377.381 -10406.833)"/><path class="a" d="M12798.877,10454.185l-8.042,23.594a1.394,1.394,0,0,1-1.322.945h-1.073a1.4,1.4,0,0,1-1.329-.962l-5.321-16.287-2.3-7.048-.085-.26a1.4,1.4,0,0,1,1.328-1.831h1.665a1.4,1.4,0,0,1,1.329.968l5.231,16.153,5.455-16.17a1.4,1.4,0,0,1,1.323-.951h1.822A1.4,1.4,0,0,1,12798.877,10454.185Z" transform="translate(-12704.771 -10443.896)"/><path class="a" d="M12603.01,10455.756l-4.466,13.707-5.454-16.176a1.4,1.4,0,0,0-1.325-.951h-5.292a1.4,1.4,0,0,0-1.4,1.4v1.866a13.139,13.139,0,0,0-8.682-3.264,13.6,13.6,0,0,0-1.732.113,13.194,13.194,0,1,0,10.414,23.007v1.872a1.4,1.4,0,0,0,1.4,1.4h1.727a1.4,1.4,0,0,0,1.4-1.4v-20.411l7.11,20.861a1.4,1.4,0,0,0,1.322.945h1.079a1.4,1.4,0,0,0,1.328-.963l4.876-14.955Zm-18,10.913a8.68,8.68,0,1,1-9.742-9.748A8.714,8.714,0,0,1,12585.006,10466.669Z" transform="translate(-12528.74 -10443.896)"/><path class="a" d="M12904.71,10455.6a13.194,13.194,0,1,0,0,19.857h0v2.022a1.242,1.242,0,0,0,1.24,1.241h2.037a1.242,1.242,0,0,0,1.242-1.241v-23.9a1.241,1.241,0,0,0-1.242-1.241h-2.037a1.241,1.241,0,0,0-1.24,1.241v2.024Zm-7.55,18.537a8.681,8.681,0,1,1,7.476-7.469A8.69,8.69,0,0,1,12897.16,10474.136Z" transform="translate(-12789.082 -10443.894)"/><path class="a" d="M13052.39,10455.6a13.194,13.194,0,1,0,0,19.857h0v2.022a1.241,1.241,0,0,0,1.24,1.241h2.039a1.241,1.241,0,0,0,1.24-1.241v-23.9a1.24,1.24,0,0,0-1.24-1.241h-2.039a1.24,1.24,0,0,0-1.24,1.241v2.024Zm-7.551,18.537a8.681,8.681,0,1,1,7.478-7.469A8.691,8.691,0,0,1,13044.839,10474.136Z" transform="translate(-12909.367 -10443.894)"/><path class="a" d="M13201.925,10455.6h0a13.194,13.194,0,1,0,0,19.857h0v9.526a1.241,1.241,0,0,0,1.24,1.242h2.038a1.241,1.241,0,0,0,1.241-1.242v-31.408a1.241,1.241,0,0,0-1.241-1.241h-2.038a1.24,1.24,0,0,0-1.24,1.241Zm-7.552,18.537a8.681,8.681,0,1,1,7.479-7.469A8.69,8.69,0,0,1,13194.373,10474.136Z" transform="translate(-13031.165 -10443.894)"/></g><g transform="translate(12414.521 10448.911)"><path class="b" d="M12577.6,10642.478l3.386-8h.688l3.386,8h-.965l-.826-1.975h-3.879l-.827,1.975Zm2.134-2.8h3.191l-1.6-3.81Z" transform="translate(-12577.603 -10634.328)"/><path class="b" d="M12625.678,10642.478v-8h.895v7.173h3.295v.827Z" transform="translate(-12616.761 -10634.328)"/><path class="b" d="M12649.738,10642.478l-2.341-8h.906l1.779,6.049,1.974-6.049h.619l1.975,6.049,1.779-6.049h.906l-2.341,8h-.574l-2.055-6.187-2.054,6.187Z" transform="translate(-12634.451 -10634.328)"/><path class="b" d="M12699.868,10642.478l3.385-8h.689l3.385,8h-.964l-.826-1.975h-3.879l-.827,1.975Zm2.134-2.8h3.19l-1.595-3.81Z" transform="translate(-12677.188 -10634.328)"/><path class="b" d="M12740.3,10642.478v-3.283l-2.812-4.717h.987l2.283,3.833,2.262-3.833h.964l-2.789,4.717v3.283Z" transform="translate(-12707.829 -10634.328)"/><path class="b" d="M12775.689,10639.712a2.065,2.065,0,0,0,2.008,1.446,1.517,1.517,0,0,0,1.354-.562,1.555,1.555,0,0,0,.253-.85,1.258,1.258,0,0,0-.4-1,5.84,5.84,0,0,0-1.388-.779,6.008,6.008,0,0,1-1.6-.954,1.774,1.774,0,0,1-.5-1.354,1.848,1.848,0,0,1,.621-1.424,2.238,2.238,0,0,1,1.57-.562,2.29,2.29,0,0,1,2.158,1.273l-.768.391a1.483,1.483,0,0,0-1.4-.839,1.194,1.194,0,0,0-1.286,1.137,1.054,1.054,0,0,0,.472.964c.2.127.344.23.471.3l.688.31a5.534,5.534,0,0,1,1.733,1.068,1.922,1.922,0,0,1,.527,1.457,2.128,2.128,0,0,1-.665,1.618,2.544,2.544,0,0,1-1.849.631,2.779,2.779,0,0,1-2.766-1.916Z" transform="translate(-12738.318 -10633.675)"/><path class="b" d="M12836.918,10642.478v-8h.895v8Z" transform="translate(-12788.816 -10634.328)"/><path class="b" d="M12853.377,10642.478v-8h.779l4.834,6.4v-6.4h.895v8h-.725l-4.889-6.475v6.475Z" transform="translate(-12802.223 -10634.328)"/><path class="b" d="M12922.021,10639.712a2.066,2.066,0,0,0,2.009,1.446,1.519,1.519,0,0,0,1.354-.562,1.562,1.562,0,0,0,.252-.85,1.261,1.261,0,0,0-.4-1,5.811,5.811,0,0,0-1.389-.779,5.983,5.983,0,0,1-1.6-.954,1.774,1.774,0,0,1-.5-1.354,1.847,1.847,0,0,1,.62-1.424,2.243,2.243,0,0,1,1.572-.562,2.294,2.294,0,0,1,2.158,1.273l-.77.391a1.482,1.482,0,0,0-1.4-.839,1.194,1.194,0,0,0-1.286,1.137,1.056,1.056,0,0,0,.472.964c.194.127.344.23.471.3l.688.31a5.534,5.534,0,0,1,1.733,1.068,1.922,1.922,0,0,1,.527,1.457,2.129,2.129,0,0,1-.666,1.618,2.541,2.541,0,0,1-1.849.631,2.778,2.778,0,0,1-2.765-1.916Z" transform="translate(-12857.507 -10633.675)"/><path class="b" d="M12954.926,10642.478v-7.173h-2.181v-.827H12958v.827h-2.181v7.173Z" transform="translate(-12883.158 -10634.328)"/><path class="b" d="M12987.484,10642.478v-3.283l-2.812-4.717h.987l2.284,3.833,2.261-3.833h.965l-2.789,4.717v3.283Z" transform="translate(-12909.163 -10634.328)"/><path class="b" d="M13027.119,10642.478v-8h.895v7.173h3.295v.827Z" transform="translate(-12943.736 -10634.328)"/><path class="b" d="M13057.807,10642.478v-8h4.522v.827h-3.628v2.536h3.409v.826h-3.409v2.983h3.707v.827Z" transform="translate(-12968.731 -10634.328)"/><path class="b" d="M13116.08,10641.674a.568.568,0,1,1,0,.8A.554.554,0,0,1,13116.08,10641.674Zm.046-.976-.184-6.221h1.079l-.184,6.221Z" transform="translate(-13016.056 -10634.328)"/></g></g></svg>